<svg width="14" height="10" viewBox="0 0 14 10" fill="none" xmlns="http://www.w3.org/2000/svg">
<path d="M5.35421 9.27955C5.22295 9.27981 5.09292 9.25416 4.97159 9.20405C4.85027 9.15394 4.74003 9.08036 4.64721 8.98755L0.405213 4.74455C0.30964 4.65237 0.233381 4.54208 0.180888 4.42011C0.128394 4.29814 0.100717 4.16694 0.0994704 4.03417C0.0982236 3.90139 0.123433 3.76969 0.173627 3.64676C0.223821 3.52383 0.297994 3.41213 0.39182 3.31817C0.485645 3.22421 0.597243 3.14988 0.720103 3.09951C0.842962 3.04915 0.974622 3.02375 1.1074 3.02481C1.24018 3.02587 1.37142 3.05336 1.49346 3.10568C1.6155 3.158 1.7259 3.2341 1.81821 3.32955L5.35321 6.86455L11.7182 0.501546C11.9057 0.313906 12.1601 0.208437 12.4254 0.208344C12.6906 0.20825 12.9451 0.313538 13.1327 0.501046C13.3204 0.688554 13.4258 0.942923 13.4259 1.20819C13.426 1.47346 13.3207 1.72791 13.1332 1.91555L6.06121 8.98755C5.96839 9.08036 5.85816 9.15394 5.73683 9.20405C5.61551 9.25416 5.48548 9.27981 5.35421 9.27955Z" fill="#2FAB73"/>
</svg>
